<?xml version="1.0" standalone="no"?>
<!DOCTYPE svg PUBLIC "-//W3C//DTD SVG 20010904//EN"
 "http://www.w3.org/TR/2001/REC-SVG-20010904/DTD/svg10.dtd">
<svg version="1.0" xmlns="http://www.w3.org/2000/svg"
 width="1000.000000pt" height="1000.000000pt" viewBox="0 0 1000.000000 1000.000000"
 preserveAspectRatio="xMidYMid meet">
<metadata>
Created by potrace 1.11, written by Peter Selinger 2001-2013
</metadata>
<g transform="translate(0.000000,1000.000000) scale(0.100000,-0.100000)"
fill="#000000" stroke="none">
<path d="M0 5000 l0 -5000 5000 0 5000 0 0 5000 0 5000 -5000 0 -5000 0 0
-5000z m5414 3472 c2 -4 120 -525 261 -1157 863 -3869 1286 -5762 1291 -5777
5 -17 -23 -18 -495 -18 -467 0 -500 1 -505 18 -7 22 -286 1451 -286 1463 0 5
-281 9 -679 9 l-679 0 -5 -23 c-8 -31 -287 -1453 -287 -1461 0 -3 -225 -6
-500 -6 -275 0 -500 3 -500 6 0 3 42 195 94 427 52 232 395 1765 761 3407 366
1642 673 3015 681 3053 l16 67 413 0 c228 0 416 -3 419 -8z"/>
<path d="M4746 5238 c-131 -678 -241 -1245 -243 -1260 l-5 -28 497 0 497 0 -5
23 c-3 12 -112 571 -242 1242 -130 671 -238 1228 -241 1238 -3 9 -8 17 -12 17
-4 0 -115 -555 -246 -1232z"/>
</g>
</svg>
